# xmcd CD database file
#
# Track frame offsets:
#	150
#	9663
#	19697
#	31216
#	42864
#	55251
#	67791
#	79210
#	89786
#	103671
#	116151
#	132280
#	144104
#	153051
#	163745
#	190727
#	207226
#	222339
#	237326
#	255216
#
# Disc length: 3535 seconds
#
# Revision: 2
# Processed by: cddbd v1.5.2PL0 Copyright (c) Steve Scherf et al.
# Submitted via: CDex 1.78
#
DISCID=080dcd14
DTITLE=Etta James - Four Classic Albums - Disc 2
DYEAR=1962
DGENRE=Blues
TTITLE0=Waiting For Charlie To Come Home
TTITLE1=Guess Again
TTITLE2=A Lover's Mourn
TTITLE3=You Can Count On Me
TTITLE4=If I Can't Have You
TTITLE5=Something's Got A Hold On Me
TTITLE6=My Dear
TTITLE7=Nobody But You
TTITLE8=Let Me Know
TTITLE9=Spoonful
TTITLE10=Don't Take Your Love From Me
TTITLE11=How Do You Speak To An Angel
TTITLE12=Fools Rush In
TTITLE13=Don't Blame Me
TTITLE14=Someone To Watch Over Me
TTITLE15=Again
TTITLE16=I Want To Be Loved
TTITLE17=It Could Happen To You
TTITLE18=These Foolish Things
TTITLE19=Prisoner Of Love
EXTD=YEAR: 1962
EXTT0=
EXTT1=
EXTT2=
EXTT3=
EXTT4=
EXTT5=
EXTT6=
EXTT7=
EXTT8=
EXTT9=
EXTT10=
EXTT11=
EXTT12=
EXTT13=
EXTT14=
EXTT15=
EXTT16=
EXTT17=
EXTT18=
EXTT19=
PLAYORDER=
